<svg width="10" height="19" viewBox="0 0 10 19" fill="none" xmlns="http://www.w3.org/2000/svg">
<path d="M0.577925 10.2678H2.50127V18.1617C2.50127 18.3175 2.62794 18.4438 2.78427 18.4438H6.04537C6.2017 18.4438 6.32837 18.3175 6.32837 18.1617V10.305H8.53942C8.68318 10.305 8.80414 10.1974 8.82055 10.055L9.15636 7.14888C9.16559 7.06892 9.14018 6.98885 9.08652 6.92887C9.03281 6.86883 8.95594 6.83446 8.87529 6.83446H6.32849V5.01274C6.32849 4.46359 6.62507 4.18511 7.2101 4.18511C7.29347 4.18511 8.87529 4.18511 8.87529 4.18511C9.03162 4.18511 9.15829 4.05877 9.15829 3.90297V1.2354C9.15829 1.07955 9.03162 0.95326 8.87529 0.95326H6.58042C6.56423 0.95247 6.52829 0.951172 6.47531 0.951172C6.07712 0.951172 4.69307 1.0291 3.59977 2.03182C2.38841 3.143 2.55679 4.47346 2.59704 4.70414V6.83441H0.577925C0.421594 6.83441 0.294922 6.96069 0.294922 7.11655V9.98557C0.294922 10.1414 0.421594 10.2678 0.577925 10.2678Z" fill="white"/>
</svg>
