<svg width="18" height="19" viewBox="0 0 18 19" fill="none" xmlns="http://www.w3.org/2000/svg">
<path d="M17.8418 6.11155C17.8006 5.17951 17.6494 4.53874 17.4328 3.98351C17.2094 3.39414 16.8657 2.86648 16.4154 2.42783C15.9754 1.98236 15.4426 1.63621 14.8583 1.41695C14.2981 1.20104 13.6588 1.05032 12.7239 1.00923C11.782 0.964653 11.483 0.954346 9.09415 0.954346C6.7053 0.954346 6.40629 0.964653 5.46791 1.00575C4.53301 1.04684 3.89029 1.1977 3.33349 1.41347C2.74218 1.63621 2.21291 1.97888 1.77292 2.42783C1.32608 2.86648 0.979005 3.39762 0.758944 3.98016C0.542373 4.53874 0.39119 5.17603 0.349971 6.10807C0.30526 7.04707 0.294922 7.34517 0.294922 9.72674C0.294922 12.1083 0.30526 12.4064 0.34648 13.3419C0.387699 14.274 0.539017 14.9147 0.755587 15.47C0.979005 16.0593 1.32608 16.587 1.77292 17.0256C2.21291 17.4711 2.74567 17.8173 3.32999 18.0365C3.89029 18.2524 4.52952 18.4032 5.46455 18.4442C6.4028 18.4855 6.70194 18.4956 9.09079 18.4956C11.4796 18.4956 11.7787 18.4855 12.717 18.4442C13.6519 18.4032 14.2947 18.2524 14.8515 18.0365C16.0339 17.5807 16.9688 16.6487 17.426 15.47C17.6424 14.9114 17.7938 14.274 17.835 13.3419C17.8762 12.4064 17.8865 12.1083 17.8865 9.72674C17.8865 7.34517 17.883 7.04707 17.8418 6.11155ZM16.2574 13.2734C16.2195 14.1301 16.0752 14.5927 15.9549 14.9011C15.6592 15.6653 15.0508 16.2718 14.2843 16.5665C13.975 16.6864 13.5076 16.8303 12.6516 16.868C11.7236 16.9092 11.4453 16.9194 9.09764 16.9194C6.75001 16.9194 6.46818 16.9092 5.5435 16.868C4.6842 16.8303 4.22018 16.6864 3.91083 16.5665C3.52938 16.426 3.18217 16.2032 2.90035 15.912C2.60818 15.6275 2.38477 15.2848 2.24379 14.9046C2.12348 14.5962 1.97915 14.1301 1.94142 13.2769C1.90007 12.3517 1.88986 12.074 1.88986 9.73356C1.88986 7.39309 1.90007 7.11213 1.94142 6.19039C1.97915 5.33371 2.12348 4.87111 2.24379 4.5627C2.38477 4.18228 2.60818 3.83627 2.90384 3.55517C3.18902 3.2639 3.53274 3.04116 3.91432 2.90075C4.22367 2.78081 4.69118 2.63692 5.54699 2.59917C6.47503 2.55808 6.7535 2.54777 9.101 2.54777C11.4521 2.54777 11.7305 2.55808 12.6551 2.59917C13.5144 2.63692 13.9785 2.78081 14.2878 2.90075C14.6693 3.04116 15.0165 3.2639 15.2983 3.55517C15.5905 3.83961 15.8139 4.18228 15.9549 4.5627C16.0752 4.87111 16.2195 5.33706 16.2574 6.19039C16.2986 7.11561 16.3089 7.39309 16.3089 9.73356C16.3089 12.074 16.2986 12.3482 16.2574 13.2734Z" fill="white"/>
<path d="M9.09395 5.62964C6.82624 5.62964 4.98633 7.46382 4.98633 9.72473C4.98633 11.9856 6.82624 13.8198 9.09395 13.8198C11.3618 13.8198 13.2016 11.9856 13.2016 9.72473C13.2016 7.46382 11.3618 5.62964 9.09395 5.62964ZM9.09395 12.3811C7.62278 12.3811 6.42944 11.1915 6.42944 9.72473C6.42944 8.25792 7.62278 7.06835 9.09395 7.06835C10.5652 7.06835 11.7585 8.25792 11.7585 9.72473C11.7585 11.1915 10.5652 12.3811 9.09395 12.3811V12.3811Z" fill="white"/>
<path d="M14.323 5.46798C14.323 5.99592 13.8936 6.424 13.3639 6.424C12.8344 6.424 12.405 5.99592 12.405 5.46798C12.405 4.93991 12.8344 4.51196 13.3639 4.51196C13.8936 4.51196 14.323 4.93991 14.323 5.46798V5.46798Z" fill="white"/>
</svg>
