<svg width="21" height="18" viewBox="0 0 21 18" fill="none" xmlns="http://www.w3.org/2000/svg">
<path d="M20.1165 2.85195C19.3794 3.1743 18.594 3.38797 17.7751 3.49171C18.6175 2.99027 19.2605 2.2023 19.5627 1.25253C18.7773 1.71939 17.9101 2.04915 16.9859 2.23318C16.2402 1.4415 15.1772 0.951172 14.0177 0.951172C11.7679 0.951172 9.95671 2.77167 9.95671 5.00344C9.95671 5.32456 9.98396 5.63332 10.0509 5.92727C6.67252 5.76301 3.68318 4.14877 1.675 1.68974C1.32441 2.29616 1.11876 2.99027 1.11876 3.73749C1.11876 5.14053 1.84348 6.38425 2.92376 7.10429C2.27089 7.09194 1.6304 6.90298 1.08779 6.60533C1.08779 6.61768 1.08779 6.63373 1.08779 6.64979C1.08779 8.61849 2.49636 10.2537 4.34348 10.6304C4.01271 10.7206 3.6522 10.7638 3.27807 10.7638C3.01791 10.7638 2.75528 10.749 2.50875 10.6946C3.03526 12.299 4.52931 13.4785 6.30582 13.5168C4.92326 14.595 3.16781 15.2446 1.26742 15.2446C0.934168 15.2446 0.614545 15.2298 0.294922 15.1891C2.09497 16.3463 4.22827 17.0071 6.52881 17.0071C14.0065 17.0071 18.0947 10.8317 18.0947 5.47894C18.0947 5.29986 18.0885 5.12695 18.0798 4.95527C18.8863 4.38467 19.564 3.67203 20.1165 2.85195Z" fill="white"/>
</svg>
